<svg width="162" height="52" viewBox="0 0 162 52" fill="none" xmlns="http://www.w3.org/2000/svg">
<path d="M2.10938 2.69995H8.53719L14.8645 19.2999L20.9911 2.69995H27.218V25.2999H22.598V10.2L16.6724 25.2999H12.7554L6.82979 10.2V25.2999H2.20982V2.69995H2.10938Z" fill="white"/>
<path d="M29.2266 25.2999L37.5626 2.69995H43.3878L51.6234 25.2999H46.4009L44.6935 20.3999H36.0561L34.3487 25.2999H29.2266ZM37.2613 16.3999H43.2874L40.2744 7.79995L37.2613 16.3999Z" fill="white"/>
<path d="M53.6328 2.69995H58.4537V11.7999H67.4928V2.69995H72.3136V25.2999H67.4928V15.9999H58.4537V25.2999H53.6328V2.69995Z" fill="white"/>
<path d="M76.2305 2.69995H84.8678C90.0904 2.69995 93.2039 4.89995 93.2039 8.69995C93.2039 11.5 91.4965 13.2 88.8852 13.7C91.8983 14.1 94.0074 15.6999 94.0074 18.8999C94.0074 22.7999 90.8939 25.2999 85.37 25.2999H76.3309V2.69995H76.2305ZM81.0513 6.49995V11.9999H84.9683C87.0774 11.9999 88.2826 10.9 88.2826 9.29995C88.2826 7.59995 87.0774 6.59995 84.9683 6.59995H81.0513V6.49995ZM81.0513 15.7V21.3999H85.2696C87.5796 21.3999 88.8852 20.2999 88.8852 18.5999C88.8852 16.7999 87.4791 15.7 85.2696 15.7H81.0513Z" fill="white"/>
<path d="M96.4168 2.69995H101.238V15.7999C101.238 19.4 102.543 21.2999 105.657 21.2999C108.77 21.2999 110.176 19.4 110.176 15.7999V2.69995H114.997V15.4999C114.997 21.8999 111.783 25.3999 105.657 25.3999C99.5303 25.3999 96.3164 21.8999 96.3164 15.4999V2.69995H96.4168Z" fill="white"/>
<path d="M118.812 2.69995H127.45C132.672 2.69995 135.786 4.89995 135.786 8.69995C135.786 11.5 134.079 13.2 131.467 13.7C134.48 14.1 136.589 15.6999 136.589 18.8999C136.589 22.7999 133.476 25.2999 127.952 25.2999H118.913V2.69995H118.812ZM123.633 6.49995V11.9999H127.55C129.659 11.9999 130.865 10.9 130.865 9.29995C130.865 7.59995 129.659 6.59995 127.55 6.59995H123.633V6.49995ZM123.633 15.7V21.3999H127.852C130.162 21.3999 131.467 20.2999 131.467 18.5999C131.467 16.7999 130.061 15.7 127.852 15.7H123.633Z" fill="white"/>
<path d="M0 40.5C0 33.6 4.21824 29 11.1482 29C16.5717 29 20.2877 32.4 20.8904 37.3H15.9691C15.3665 34.8 13.5586 33.1 10.8469 33.1C7.13083 33.1 4.92128 36.1 4.92128 40.5C4.92128 44.8 7.13084 47.9 10.7465 47.9C13.4582 47.9 15.266 46.3 15.8686 43.7H20.7899C20.2878 48.6 16.2704 52 10.7465 52C4.11781 52 0 47.4 0 40.5Z" fill="white"/>
<path d="M33.7447 52C27.1161 52 22.4961 47.1 22.4961 40.5C22.4961 33.9 27.0156 29 33.7447 29C40.3734 29 44.9934 33.9 44.9934 40.5C44.9934 47.1 40.3734 52 33.7447 52ZM33.7447 47.9C37.5613 47.9 39.9717 44.8 39.9717 40.5C39.9717 36.2 37.4608 33.1 33.7447 33.1C29.9282 33.1 27.4174 36.2 27.4174 40.5C27.4174 44.8 29.9282 47.9 33.7447 47.9Z" fill="white"/>
<path d="M47.9062 29.2H54.334L60.6614 45.7999L66.7879 29.2H73.0149V51.7999H68.3949V36.7L62.4692 51.7999H58.5523L52.6267 36.7V51.7999H48.0067V29.2H47.9062Z" fill="white"/>
<path d="M76.832 29.2H86.072C90.9933 29.2 94.3076 32.1 94.3076 36.7C94.3076 41.2 90.9933 44.2 86.072 44.2H81.6529V51.7999H76.832V29.2ZM81.6529 33.2999V40.2H85.5698C87.8798 40.2 89.2859 38.9 89.2859 36.7C89.2859 34.5 87.7794 33.2 85.5698 33.2H81.6529V33.2999Z" fill="white"/>
<path d="M92.6016 51.7999L100.938 29.2H106.763L114.998 51.7999H109.776L108.068 46.8999H99.3307L97.6233 51.7999H92.6016ZM100.636 43H106.662L103.649 34.3999L100.636 43Z" fill="white"/>
<path d="M117.008 51.7999V29.2H121.427L131.069 43.3999V29.2H135.889V51.7999H131.47L121.829 37.5999V51.7999H117.008Z" fill="white"/>
<path d="M137.797 29.2H143.421L148.543 38.5L153.866 29.2H159.29L150.954 43.3999V51.7999H146.133V43.3999L137.797 29.2Z" fill="white"/>
<path d="M158.686 21.3L161.196 24.3L157.982 27.3L155.472 24.3C152.76 26.3 149.747 27.3 146.433 27.3C144.625 27.3 143.018 27 141.612 26.5C140.206 26 139.201 25.2 138.398 24.2C137.594 23.2 137.293 22.1 137.293 20.8C137.293 19 137.896 17.4 139.201 16C140.507 14.6 142.415 13.3 145.026 12C143.821 10.4 143.219 8.8 143.219 7.2C143.219 5.7 143.62 4.5 144.323 3.4C145.026 2.3 146.031 1.5 147.336 0.900002C148.642 0.300002 150.048 0 151.655 0C153.664 0 155.271 0.500002 156.476 1.4C157.681 2.3 158.284 3.6 158.284 5.2C158.284 6.8 157.681 8.2 156.576 9.4C155.472 10.6 153.664 11.7 151.354 12.9L155.974 18.3C156.878 17 157.681 15.5 158.384 13.7L162 15C161.196 17.5 159.991 19.6 158.686 21.3ZM152.961 21.4L147.236 14.7C145.428 15.6 144.123 16.4 143.219 17.2C142.415 18 142.013 19 142.013 20C142.013 21 142.415 21.9 143.219 22.5C144.022 23.1 145.227 23.4 146.834 23.4C149.044 23.4 151.153 22.8 152.961 21.4ZM148.743 4.3C148.039 4.9 147.738 5.7 147.738 6.7C147.738 7.2 147.839 7.7 148.14 8.3C148.341 8.8 148.843 9.5 149.345 10.2C151.253 9.3 152.559 8.6 153.362 7.9C154.166 7.2 154.467 6.4 154.467 5.6C154.467 5 154.266 4.4 153.764 4C153.262 3.6 152.559 3.4 151.756 3.4C150.349 3.4 149.345 3.7 148.743 4.3Z" fill="#FA0022"/>
</svg>
